<svg width="12" height="10" viewBox="0 0 12 10" fill="none" xmlns="http://www.w3.org/2000/svg">
<path d="M10.1926 0.219934C10.2608 0.1503 10.3423 0.0949814 10.4322 0.0572166C10.5221 0.0194519 10.6186 0 10.7161 0C10.8136 0 10.9101 0.0194519 11 0.0572166C11.0899 0.0949814 11.1713 0.1503 11.2396 0.219934C11.5256 0.508934 11.5296 0.975934 11.2496 1.26993L4.37998 9.06698C4.31285 9.1407 4.23138 9.19995 4.14056 9.2411C4.04974 9.28225 3.95148 9.30444 3.85179 9.30632C3.7521 9.30819 3.65308 9.2897 3.56078 9.25199C3.46848 9.21427 3.38484 9.15813 3.31499 9.08698L0.216492 6.08704C0.077729 5.94552 0 5.75523 0 5.55704C0 5.35884 0.077729 5.16855 0.216492 5.02704C0.284738 4.9574 0.36619 4.90209 0.45608 4.86432C0.54597 4.82656 0.642491 4.8071 0.739992 4.8071C0.837493 4.8071 0.934014 4.82656 1.0239 4.86432C1.11379 4.90209 1.19525 4.9574 1.26349 5.02704L3.81598 7.47398L10.1726 0.241934C10.1788 0.234206 10.1855 0.226859 10.1926 0.219934Z" fill="black"/>
</svg>
