<svg width="26" height="30" viewBox="0 0 26 30" fill="none" xmlns="http://www.w3.org/2000/svg">
<path d="M22.1085 0.577637C23.7057 0.577637 25.01 1.86478 25.0371 3.47049V29.1491L21.9657 26.4348L20.2371 24.8348L18.4085 23.1348L19.1657 25.7776H2.96568C2.19569 25.7758 1.45722 25.4716 0.909422 24.9305C0.361622 24.3894 0.0483481 23.6547 0.0371094 22.8848L0.0371094 3.52049C0.0371094 1.90907 1.32425 0.60478 2.91568 0.577637H22.1085ZM10.4943 7.40621L10.3514 7.23478H10.27C9.87997 7.24764 8.14711 7.37764 6.33711 8.73478L6.26854 8.86621C5.90997 9.56621 4.27997 12.9691 4.27997 17.0634L4.30854 17.1105C4.5114 17.4205 5.76425 19.1434 8.63711 19.2348L9.05854 18.7191L9.59425 18.0491C7.92854 17.5505 7.21425 16.5476 7.10854 16.3862L7.09425 16.3634L7.15282 16.4019C7.21711 16.4448 7.33425 16.5162 7.49425 16.6062C7.50854 16.6205 7.52282 16.6348 7.5514 16.6491C7.59425 16.6776 7.63711 16.6919 7.67997 16.7205C8.03711 16.9205 8.39425 17.0776 8.72282 17.2062C9.30854 17.4348 10.0085 17.6634 10.8228 17.8205C11.8643 18.0148 13.08 18.0876 14.4057 17.8562L14.5228 17.8348C15.1943 17.7205 15.88 17.5205 16.5943 17.2205C17.0943 17.0348 17.6514 16.7634 18.2371 16.3776L18.2143 16.4134C18.0771 16.6134 17.3285 17.6034 15.6514 18.0776L15.8871 18.3734C16.2485 18.8219 16.5943 19.2348 16.5943 19.2348C19.7514 19.1348 20.9657 17.0634 20.9657 17.0634C20.9657 12.4634 18.9085 8.73478 18.9085 8.73478C17.14 7.40764 15.4443 7.25335 15.0043 7.23621L14.8943 7.23478L14.6943 7.46335C16.8485 8.12192 17.98 9.03907 18.2085 9.23907L18.2514 9.27764C16.0624 8.07038 13.543 7.59956 11.0657 7.93478C10.98 7.93478 10.9085 7.94907 10.8228 7.96335L10.7428 7.97049C10.2 8.02621 9.03282 8.22621 7.57997 8.86335L7.37282 8.96049C7.11282 9.08335 6.92425 9.17907 6.82282 9.23192L6.73711 9.27764C6.73711 9.27764 7.89854 8.17192 10.4171 7.42907L10.4943 7.40621ZM9.9514 12.5634C10.7657 12.5634 11.4228 13.2776 11.4085 14.1491C11.4085 15.0205 10.7657 15.7348 9.9514 15.7348C9.1514 15.7348 8.49425 15.0205 8.49425 14.1491C8.49425 13.2776 9.13711 12.5634 9.9514 12.5634ZM15.1657 12.5634C15.98 12.5634 16.6228 13.2776 16.6228 14.1491C16.6228 15.0205 15.98 15.7348 15.1657 15.7348C14.3657 15.7348 13.7085 15.0205 13.7085 14.1491C13.7085 13.2776 14.3514 12.5634 15.1657 12.5634Z" fill="white"/>
</svg>
