<svg width="496" height="444" viewBox="0 0 496 444" fill="none" xmlns="http://www.w3.org/2000/svg">
<g clip-path="url(#clip0_281_260)">
<path fill-rule="evenodd" clip-rule="evenodd" d="M330.427 361.192L253.097 433.367C253.097 433.367 259.876 436.153 268.563 438.522C278.873 441.658 345.893 371.503 345.893 371.503L381.98 350.881L402.602 299.328H412.912L418.068 278.706L443.844 247.774L464.466 211.687H454.155V144.667L464.466 134.357L469.621 113.735L443.844 87.9587V82.8033L474.776 67.3373L490.242 46.716L459.31 51.8713L449 46.716H418.068L387.135 77.648H356.203L351.048 62.182H335.582L340.737 46.716L325.271 41.5606L304.65 10.6286L289.184 0.317871L284.029 20.9392L289.184 41.5606L284.029 46.716L278.873 41.5606L268.563 26.0946L263.407 20.9392L258.252 0.317871H247.941H242.786H232.475L227.32 20.9392L222.165 26.0946L211.854 41.5606L206.699 46.716L201.543 41.5606L206.699 20.9392L201.543 0.317871L186.077 10.6286L165.456 41.5606L149.99 46.716L155.145 62.182H139.679L134.524 77.648H103.592L72.6596 46.716H41.7276L31.4169 51.8713L0.484863 41.5606L15.9509 67.3373L46.8829 82.8033V87.9587L21.1062 113.735L26.2616 134.357L36.5723 144.667V211.687H26.2616L46.8829 247.774L72.6596 278.706L77.815 299.328H88.1257L108.747 350.881L144.834 371.503C144.834 371.503 206.699 441.615 217.009 438.522C225.72 436.243 232.475 433.367 232.475 433.367L160.3 361.192L144.834 330.26L170.611 335.415L165.456 305.087L180.922 278.706L191.232 283.862L222.165 268.396L227.32 252.93H242.786H247.941H263.407L268.563 268.396L299.495 283.862L309.805 278.706L325.271 305.087L320.116 335.415L345.893 330.26L330.427 361.192ZM144.834 247.774H180.922L211.854 227.153L201.543 216.842V180.755H196.388L170.611 165.289L165.456 149.823L119.058 134.357L108.747 124.046L77.815 144.667V160.133L72.6596 185.91L98.4364 227.153L103.592 237.464L144.834 247.774ZM289.184 216.842L278.873 227.153L309.805 247.774H345.893L387.135 237.464L392.291 227.153L418.068 185.91L412.912 160.133V144.667L381.98 124.046L371.669 134.357L325.271 149.823L320.116 165.289L294.339 180.755L289.184 181.359V216.842ZM129.367 283.862L103.592 263.845L144.833 273.551L139.679 310.243L129.367 283.862ZM387.135 263.845L361.359 283.862L351.048 310.243L345.893 273.551L387.135 263.845Z" fill="white"/>
</g>
<defs>
<clipPath id="clip0_281_260">
<rect width="494.913" height="443.359" fill="white" transform="translate(0.484863 0.317871)"/>
</clipPath>
</defs>
</svg>
