<svg width="256" height="240" viewBox="0 0 256 240" fill="none" xmlns="http://www.w3.org/2000/svg">
<path d="M250.066 0L140.219 81.28L160.646 33.379L250.066 0Z" fill="#E17726"/>
<path d="M6.18994 0.0959473L95.3719 33.3849L114.768 81.9129L6.18994 0.0959473Z" fill="#E27625"/>
<path d="M205.86 172.858L254.41 173.782L237.443 231.424L178.2 215.113L205.86 172.858Z" fill="#E27625"/>
<path d="M50.14 172.858L77.696 215.113L18.553 231.425L1.68799 173.782L50.14 172.858Z" fill="#E27625"/>
<path d="M112.13 69.552L114.115 133.635L54.7451 130.934L71.6321 105.456L71.8461 105.211L112.13 69.552Z" fill="#E27625"/>
<path d="M143.254 68.8369L184.154 105.213L184.366 105.457L201.254 130.935L141.896 133.635L143.254 68.8369Z" fill="#E27625"/>
<path d="M79.4348 173.044L111.853 198.303L74.1948 216.484L79.4348 173.044Z" fill="#E27625"/>
<path d="M176.57 173.04L181.702 216.485L144.149 198.301L176.57 173.04Z" fill="#E27625"/>
<path d="M144.978 195.922L183.085 214.374L147.638 231.22L148.006 220.086L144.978 195.922Z" fill="#D5BFB2"/>
<path d="M111.011 195.93L108.102 219.904L108.341 231.207L72.811 214.374L111.011 195.93Z" fill="#D5BFB2"/>
<path d="M100.007 141.999L109.965 162.927L76.062 152.995L100.007 141.999Z" fill="#233447"/>
<path d="M155.992 142L180.05 152.995L146.036 162.924L155.992 142Z" fill="#233447"/>
<path d="M82.0259 172.83L76.5458 217.87L47.1729 173.815L82.0259 172.83Z" fill="#CC6228"/>
<path d="M173.976 172.83L208.83 173.815L179.347 217.872L173.976 172.83Z" fill="#CC6228"/>
<path d="M202.112 128.387L176.747 154.238L157.19 145.301L147.827 164.985L141.689 131.136L202.112 128.387Z" fill="#CC6228"/>
<path d="M53.875 128.387L114.31 131.137L108.171 164.985L98.806 145.304L79.353 154.239L53.875 128.387Z" fill="#CC6228"/>
<path d="M52.166 123.082L80.864 152.203L81.858 180.953L52.166 123.082Z" fill="#E27525"/>
<path d="M203.863 123.03L174.117 181.003L175.237 152.203L203.863 123.03Z" fill="#E27525"/>
<path d="M112.907 124.856L114.062 132.126L116.916 150.236L115.081 205.862L106.406 161.177L106.403 160.715L112.907 124.856Z" fill="#E27525"/>
<path d="M143.078 124.755L149.599 160.715L149.596 161.177L140.899 205.974L140.555 194.769L139.198 149.907L143.078 124.755Z" fill="#E27525"/>
<path d="M177.788 151.046L176.818 176.024L146.543 199.611L140.423 195.287L147.283 159.952L177.788 151.046Z" fill="#F5841F"/>
<path d="M78.3169 151.046L108.717 159.952L115.577 195.287L109.457 199.611L79.1809 176.021L78.3169 151.046Z" fill="#F5841F"/>
<path d="M67.0181 208.858L105.75 227.21L105.586 219.373L108.826 216.528H147.161L150.519 219.363L150.271 227.194L188.758 208.904L170.03 224.38L147.385 239.933H108.516L85.8861 224.316L67.0181 208.858Z" fill="#C0AC9D"/>
<path d="M142.204 193.48L147.68 197.348L150.889 222.952L146.245 219.031H109.769L105.213 223.031L108.317 197.35L113.795 193.48H142.204Z" fill="#161616"/>
<path d="M242.814 2.25L256 41.807L247.765 81.804L253.629 86.327L245.694 92.381L251.658 96.987L243.761 104.178L248.609 107.689L235.743 122.715L182.973 107.35L182.516 107.105L144.489 75.027L242.814 2.25Z" fill="#763E1A"/>
<path d="M13.186 2.25L111.512 75.027L73.484 107.105L73.027 107.35L20.257 122.715L7.39 107.689L12.234 104.181L4.342 96.987L10.294 92.387L2.24 86.315L8.325 81.789L0 41.809L13.186 2.25Z" fill="#763E1A"/>
<path d="M180.392 103.99L236.305 120.27L254.47 176.255H206.546L173.526 176.671L197.54 129.863L180.392 103.99Z" fill="#F5841F"/>
<path d="M75.6079 103.99L58.4569 129.863L82.4739 176.671L49.4689 176.255H1.63086L19.6939 120.27L75.6079 103.99Z" fill="#F5841F"/>
<path d="M163.384 33.1121L147.744 75.3511L144.426 132.411L143.156 150.296L143.056 195.984H112.944L112.846 150.382L111.572 132.396L108.252 75.3511L92.6152 33.1111L163.384 33.1121Z" fill="#F5841F"/>
</svg>
